<?xml version="1.0" standalone="no"?>
<!DOCTYPE svg PUBLIC "-//W3C//DTD SVG 20010904//EN"
 "http://www.w3.org/TR/2001/REC-SVG-20010904/DTD/svg10.dtd">
<svg version="1.0" xmlns="http://www.w3.org/2000/svg"
 width="1200.000000pt" height="900.000000pt" viewBox="0 0 1200.000000 900.000000"
 preserveAspectRatio="xMidYMid meet">
<metadata>
Created by potrace 1.16, written by Peter Selinger 2001-2019
</metadata>
<g transform="translate(0.000000,900.000000) scale(0.100000,-0.100000)"
fill="#000000" stroke="none">
<path d="M0 4500 l0 -4500 6000 0 6000 0 0 4500 0 4500 -6000 0 -6000 0 0
-4500z m2982 3943 c2 -410 6 -527 16 -531 9 -3 12 107 12 527 l0 531 735 0
735 0 0 -99 c0 -101 5 -131 21 -131 5 0 9 52 9 115 l0 115 1495 0 1494 0 3
-112 c2 -67 7 -113 13 -113 6 0 11 46 13 113 l3 112 734 0 735 0 0 -531 c0
-420 3 -530 12 -527 10 4 14 121 16 531 l2 527 1470 0 1470 0 0 -1475 0 -1475
-835 -2 c-546 -2 -836 -6 -838 -13 -1 -6 39 -11 101 -13 l102 -3 0 -399 c0
-260 4 -400 10 -400 7 0 10 140 10 400 l0 400 725 0 725 0 0 -740 0 -740 -717
-2 c-470 -2 -718 -6 -718 -13 0 -7 248 -11 718 -13 l717 -2 0 -735 0 -735
-725 0 -725 0 0 400 c0 260 -3 400 -10 400 -6 0 -10 -140 -10 -400 l0 -399
-97 -3 c-66 -2 -98 -7 -101 -15 -3 -10 168 -13 832 -13 l836 0 0 -1475 0
-1475 -562 1 c-507 1 -556 3 -488 15 248 45 468 156 649 329 373 355 489 900
294 1375 -272 666 -1049 960 -1703 647 -291 -140 -527 -408 -631 -718 -177
-528 6 -1095 458 -1418 148 -106 300 -172 488 -210 l90 -19 -772 -1 -773 -1
-2 527 c-2 410 -6 527 -15 531 -10 3 -13 -107 -13 -527 l0 -531 -735 0 -734 0
-3 107 c-2 74 -7 108 -15 111 -10 3 -13 -23 -13 -107 l0 -111 -1495 0 -1495 0
0 111 c0 84 -3 110 -12 107 -9 -3 -14 -37 -16 -111 l-3 -107 -734 0 -735 0 0
531 c0 420 -3 530 -12 527 -10 -4 -14 -121 -16 -531 l-2 -527 -773 1 c-683 1
-763 3 -697 15 525 95 931 506 1021 1033 17 97 15 311 -4 416 -107 596 -622
1027 -1226 1027 -302 -1 -545 -85 -784 -274 -403 -317 -565 -865 -403 -1361
40 -122 69 -182 141 -293 183 -282 467 -472 810 -544 l90 -18 -546 -1 -545 -1
1 28 c2 15 0 18 -2 7 -3 -11 -9 -24 -14 -29 -5 -6 -9 573 -9 1467 l0 1477 841
0 c668 0 840 3 837 13 -3 8 -35 13 -101 15 l-97 3 0 399 c0 349 -2 400 -15
400 -13 0 -15 -51 -15 -400 l0 -400 -725 0 -725 0 0 735 0 735 692 2 c542 2
692 6 696 16 3 9 -140 12 -692 12 l-696 0 0 740 0 740 725 0 725 0 2 -402 c2
-260 7 -403 13 -403 6 0 11 143 13 403 l2 402 101 0 c76 0 100 3 97 13 -4 9
-183 13 -841 15 l-837 2 0 1475 0 1475 1475 0 1475 0 2 -527z m-1489 -5988
c486 -85 858 -436 979 -924 31 -126 31 -407 0 -534 -43 -171 -123 -339 -224
-471 l-53 -69 -105 -1 c-117 -1 -205 20 -251 61 -14 13 -32 23 -41 23 -8 0
-46 22 -83 50 -38 27 -81 52 -97 55 -26 6 -28 10 -28 59 0 41 5 59 24 80 l23
28 39 -21 c21 -12 47 -21 56 -21 26 0 22 -20 -9 -53 l-28 -30 43 27 c39 25 56
24 31 -1 -13 -13 -5 -43 10 -43 5 0 23 12 40 26 17 14 31 22 31 18 0 -4 10 2
23 14 13 12 26 20 29 17 11 -12 38 43 53 110 6 27 8 28 15 10 5 -15 10 -6 21
40 8 36 25 75 42 97 l30 37 28 -20 c40 -28 39 -78 -2 -155 l-30 -59 31 30 c65
60 79 154 35 219 -28 41 -30 52 -14 61 18 12 59 -36 60 -69 0 -31 0 -31 10 -6
16 38 3 84 -31 108 -23 18 -28 28 -24 50 2 15 6 52 9 82 2 30 9 76 16 103 11
41 10 52 -4 82 -9 19 -14 42 -10 51 4 10 -10 30 -43 60 l-49 44 30 1 c28 0 28
1 -10 13 -34 10 -42 18 -58 60 -9 26 -33 67 -52 91 -19 23 -35 46 -35 51 0 5
-13 25 -29 44 -15 19 -40 58 -55 85 -49 91 -72 124 -123 178 -112 120 -230
174 -411 187 -124 8 -234 -6 -281 -37 -75 -49 -161 -153 -161 -196 0 -7 -19
-34 -43 -58 -64 -67 -110 -135 -102 -150 6 -8 4 -10 -5 -4 -10 6 -12 4 -6 -11
4 -10 4 -15 0 -11 -8 8 -44 -57 -44 -79 0 -7 -5 -14 -11 -16 -7 -2 -16 -33
-21 -68 -4 -36 -18 -90 -29 -120 -26 -69 -45 -182 -48 -283 -2 -65 1 -81 18
-103 24 -30 27 -54 9 -72 -6 -6 -8 -15 -4 -19 4 -5 14 1 22 12 14 19 15 18 9
-13 -3 -21 -2 -31 4 -27 6 3 10 -12 9 -39 0 -28 5 -51 15 -60 29 -30 57 -84
51 -100 -3 -9 -1 -16 6 -16 6 0 8 -5 5 -10 -12 -20 15 -40 40 -30 17 6 25 5
29 -5 4 -10 13 -12 35 -5 34 9 110 2 129 -13 20 -16 15 21 -8 53 -52 74 -73
139 -105 330 -25 145 -14 309 28 426 16 43 47 185 52 239 7 60 27 105 49 106
35 2 39 4 81 25 23 12 62 22 94 23 29 1 74 6 100 11 32 6 56 4 81 -5 19 -7 58
-21 85 -32 121 -45 155 -86 156 -188 1 -38 5 -79 10 -92 5 -14 5 -31 0 -40 -5
-9 -4 -27 3 -45 14 -38 -4 -51 -62 -43 -51 8 -75 -8 -92 -61 -7 -19 -16 -34
-21 -34 -15 0 -10 -121 7 -199 21 -93 15 -114 -41 -140 -25 -12 -48 -28 -51
-36 -4 -8 -10 -15 -16 -15 -5 0 -6 5 -3 10 12 19 -16 40 -51 40 -22 0 -34 -5
-34 -14 0 -15 21 -26 48 -26 10 0 22 -10 27 -22 6 -12 29 -28 53 -37 23 -8 42
-18 42 -22 0 -10 -68 -21 -81 -14 -5 4 -17 1 -25 -6 -11 -9 -20 -9 -37 -1 -12
6 -46 13 -76 16 -66 7 -88 22 -67 45 8 9 17 28 21 42 4 15 17 32 30 39 23 12
35 37 35 74 0 24 -12 19 -122 -51 -109 -69 -107 -63 -52 -261 8 -28 19 -52 24
-52 5 0 12 22 16 50 11 86 58 94 79 12 6 -26 27 -60 56 -91 39 -42 58 -53 118
-71 39 -12 89 -20 110 -18 28 2 38 0 38 -12 1 -27 -29 -52 -54 -45 -15 3 -25
1 -29 -9 -8 -21 -30 -27 -120 -32 l-81 -5 -68 61 c-37 34 -70 59 -73 55 -8 -7
92 -108 141 -142 20 -14 37 -31 37 -38 0 -6 11 -18 25 -25 13 -7 27 -22 31
-32 3 -10 24 -28 46 -39 l41 -21 23 25 c13 14 33 28 44 32 11 3 20 13 20 21 0
13 3 13 17 -1 11 -12 26 -15 49 -12 22 4 37 1 45 -9 6 -8 18 -14 25 -14 15 0
29 -43 21 -64 -3 -8 -1 -16 4 -18 6 -2 10 -24 11 -48 0 -25 6 -52 13 -60 10
-12 11 -34 5 -97 -5 -46 -11 -87 -14 -92 -13 -20 -146 -36 -301 -35 -140 0
-173 4 -268 28 -60 15 -129 36 -153 47 l-45 19 6 112 c8 143 15 170 70 254 45
68 54 94 35 94 -22 0 -89 -40 -140 -84 -30 -26 -57 -46 -61 -46 -3 0 -23 -13
-43 -29 -20 -16 -71 -47 -112 -68 l-75 -38 -75 78 c-139 144 -246 339 -300
547 -25 95 -28 122 -28 280 0 111 4 197 13 235 56 254 159 444 335 621 182
183 393 294 641 338 107 19 302 19 408 1z m9265 -46 l-3 -60 -110 -4 c-68 -2
-123 -9 -145 -18 -31 -14 -35 -13 -47 2 -11 15 -12 15 -13 -1 0 -17 -24 -23
-72 -19 -10 1 -18 -3 -18 -8 0 -6 -9 -11 -20 -11 -11 0 -20 4 -20 8 0 4 -15
24 -33 44 l-33 37 55 20 c56 20 200 56 256 64 17 2 70 5 118 6 l88 1 -3 -61z
m148 46 c104 -18 274 -71 290 -91 6 -7 13 -11 17 -8 11 11 128 -59 250 -150
37 -27 67 -53 67 -56 0 -3 -84 -7 -187 -9 -103 -1 -190 -4 -194 -7 -4 -2 -10
4 -13 13 -8 23 -127 113 -149 113 -9 0 -17 4 -17 10 0 15 -60 42 -120 55 l-55
11 -3 67 c-3 77 -12 73 114 52z m-1021 -327 c-33 -34 -67 -68 -75 -75 -13 -11
-13 -14 0 -23 13 -8 13 -10 -2 -10 -11 0 -15 -5 -12 -14 3 -7 13 -13 22 -12 9
0 16 -4 15 -10 -1 -7 10 -15 25 -19 47 -12 71 -44 35 -46 -16 -1 -16 -2 0 -6
12 -3 16 -10 13 -20 -4 -9 -1 -22 6 -30 9 -11 8 -13 -2 -11 -9 2 -15 -6 -15
-22 -1 -14 -5 -36 -9 -49 -5 -15 -5 -21 2 -17 6 3 13 0 15 -6 3 -7 6 -4 6 7 1
14 8 21 21 21 11 0 20 -4 20 -8 0 -4 -4 -8 -10 -8 -5 0 -10 -4 -10 -9 0 -5 10
-7 23 -4 15 3 18 2 9 -4 -7 -6 -10 -17 -6 -27 7 -18 -15 -19 -28 -1 -5 6 -8 6
-8 -2 0 -6 5 -15 10 -18 11 -7 -55 -65 -72 -65 -6 0 -7 -7 -4 -16 4 -10 1 -14
-6 -11 -7 2 -12 14 -11 26 3 19 0 20 -17 11 -11 -6 -20 -7 -20 -3 0 4 -5 1
-10 -7 -7 -11 -10 -11 -10 -2 0 7 -5 10 -11 7 -5 -4 -20 1 -31 12 -12 10 -18
13 -15 7 4 -7 -2 -14 -12 -17 -14 -3 -18 -1 -14 9 6 17 -9 18 -25 2 -9 -9 -12
-9 -12 2 0 7 -3 10 -7 7 -3 -4 -12 -2 -20 4 -10 9 -17 8 -28 -1 -25 -21 -27
-6 -5 49 55 140 139 269 253 388 44 46 82 83 86 83 3 0 -21 -28 -54 -62z
m1721 -56 c74 -84 127 -159 166 -232 44 -84 91 -201 83 -209 -7 -6 -40 -7
-378 -15 -110 -2 -201 -7 -204 -10 -16 -15 -56 62 -52 100 2 16 1 34 -3 39 -5
8 -14 78 -23 177 -1 10 -4 21 -8 24 -4 4 -7 17 -7 28 0 12 -11 43 -25 71 -14
27 -23 55 -21 62 5 13 55 16 297 20 l125 2 50 -57z m-981 -122 c-6 -9 46 -16
70 -9 23 6 140 -2 149 -11 13 -13 56 -13 56 0 0 6 7 10 15 10 20 0 19 -16 -1
-24 -8 -3 -12 -10 -9 -16 3 -5 21 6 39 26 l33 36 25 -24 c33 -31 44 -54 53
-112 3 -26 17 -81 30 -121 14 -41 27 -104 30 -142 9 -91 11 -98 30 -83 13 10
16 8 21 -18 6 -28 8 -30 30 -20 13 6 24 15 24 20 0 4 5 8 11 8 6 0 1 -15 -10
-34 -17 -27 -20 -41 -13 -72 7 -34 6 -41 -14 -54 -17 -12 -20 -20 -13 -30 7
-12 10 -11 15 7 3 12 15 25 26 29 17 5 18 8 7 16 -9 6 -2 7 21 2 49 -9 61 -21
50 -49 -5 -13 -6 -25 -4 -28 3 -3 -4 -8 -15 -12 -12 -3 -21 -11 -21 -16 0 -6
-4 -7 -10 -4 -5 3 -10 2 -10 -4 0 -5 6 -12 13 -14 7 -4 6 -6 -5 -6 -9 -1 -18
5 -21 12 -3 9 -9 9 -24 1 -15 -9 -23 -8 -38 3 -14 11 -16 17 -7 20 6 3 12 11
12 19 0 9 -4 13 -9 9 -5 -3 -11 5 -13 17 -3 15 -7 4 -12 -27 -4 -27 -16 -76
-27 -108 -21 -62 -25 -92 -9 -67 5 8 12 11 16 8 9 -10 25 -173 16 -175 -4 -2
-5 -30 -4 -64 2 -36 -1 -66 -7 -72 -6 -6 -11 -18 -11 -27 0 -9 -9 -25 -20 -35
-11 -10 -20 -22 -20 -26 0 -5 -16 -24 -35 -43 -19 -20 -35 -41 -35 -48 -1 -7
-14 -28 -30 -47 -21 -24 -34 -32 -47 -27 -9 4 -14 4 -10 -1 12 -11 -95 -31
-115 -21 -25 12 -97 10 -78 -2 25 -17 -50 0 -96 21 -50 23 -83 57 -127 131
-33 55 -34 59 -40 202 l-7 146 -34 44 c-19 25 -42 68 -51 95 -9 28 -21 51 -26
51 -30 0 -124 140 -139 206 -9 39 -8 51 7 73 16 24 18 24 21 6 2 -10 -1 -21
-7 -23 -19 -6 -13 -78 9 -103 l20 -24 -3 42 c-2 24 0 48 5 55 6 10 8 10 8 1 0
-7 7 -13 15 -13 20 0 19 -20 -2 -35 -15 -11 -15 -17 -5 -39 7 -16 20 -26 33
-26 18 0 20 4 15 28 -3 15 -8 68 -12 117 l-6 90 43 28 c37 23 53 27 109 26 88
-2 110 -1 110 9 0 16 -75 29 -150 26 -61 -2 -78 -7 -91 -23 -15 -18 -18 -18
-23 -5 -3 9 -6 28 -6 42 0 15 -7 58 -15 96 l-14 68 55 61 c30 34 66 66 80 72
35 14 237 19 229 5z m1261 -410 c16 -67 17 -120 3 -140 -8 -12 -9 -10 -4 8 5
16 2 22 -10 22 -9 0 -14 -4 -11 -9 3 -5 -4 -11 -15 -14 -12 -3 -18 -10 -15
-16 9 -14 -56 -2 -66 12 -3 6 -22 -7 -43 -29 -23 -25 -39 -34 -42 -26 -2 6
-17 11 -31 11 -17 -1 -21 -3 -9 -6 9 -2 17 -13 17 -24 0 -19 -1 -19 -16 -4
-18 18 -35 16 -42 -5 -3 -9 2 -11 17 -7 11 3 21 1 21 -4 0 -10 -21 -12 -44 -3
-9 4 -14 15 -12 28 2 11 1 16 -1 10 -7 -20 -56 -24 -69 -6 -6 8 -16 12 -22 8
-7 -4 -12 -3 -12 3 0 6 -7 7 -17 4 -11 -4 -14 -3 -9 5 4 7 3 12 -2 12 -5 0
-17 12 -27 26 -16 25 -16 25 3 15 11 -6 22 -8 25 -5 2 3 14 -7 26 -22 19 -25
21 -25 21 -6 0 25 -36 53 -58 45 -12 -5 -14 -1 -9 16 3 13 3 20 0 17 -3 -3
-12 2 -19 12 -12 16 -13 16 -14 -3 -1 -20 -1 -20 -16 0 -13 17 -16 18 -25 5
-7 -11 -8 -6 -4 18 5 26 3 32 -10 32 -9 0 -14 4 -11 9 3 4 -6 6 -20 3 -27 -5
-44 10 -44 38 0 13 30 15 211 15 116 0 236 2 267 5 125 11 124 12 138 -50z
m-10308 -186 c12 -4 22 -13 22 -20 0 -11 9 -13 40 -8 62 10 73 -5 65 -90 -8
-92 -20 -128 -50 -154 -14 -12 -25 -26 -25 -32 0 -28 -31 -2 -87 73 -82 108
-99 149 -84 199 11 36 14 38 54 38 23 0 52 -3 65 -6z m8606 -323 c8 -12 -55
-16 -287 -16 -125 0 -227 -4 -227 -8 0 -4 -8 -7 -17 -5 -15 2 -18 -5 -19 -41
0 -26 5 -45 12 -48 7 -2 10 -12 7 -21 -4 -14 -3 -15 5 -2 6 8 25 16 41 18 24
2 31 -1 32 -15 1 -10 2 -25 3 -33 0 -8 9 -14 19 -12 25 4 21 -13 -8 -28 -17
-9 -25 -22 -25 -41 0 -28 0 -28 -37 -15 -47 16 -51 28 -16 60 15 14 22 26 15
26 -8 0 -22 -10 -33 -22 -16 -20 -18 -21 -19 -5 0 14 -5 17 -20 12 -13 -4 -21
-2 -22 7 -2 24 -5 33 -16 61 -7 16 -12 42 -12 58 0 17 -7 37 -15 45 -8 9 -15
18 -15 22 0 9 649 12 654 3z m-272 -77 c20 20 29 21 22 1 -3 -8 -14 -17 -25
-20 -27 -9 -24 -27 4 -23 16 2 23 -3 25 -20 2 -12 8 -20 13 -17 5 4 5 14 -1
26 -15 27 -5 39 30 36 26 -2 28 -4 14 -14 -9 -7 -21 -10 -25 -7 -5 3 -9 1 -9
-5 0 -5 5 -13 10 -16 6 -3 10 -1 10 4 0 6 7 11 16 11 8 0 12 -4 9 -10 -3 -5
-1 -10 5 -10 6 0 8 -4 5 -10 -15 -25 12 -7 30 20 22 33 55 40 55 12 0 -13 -8
-18 -27 -17 -21 0 -28 -5 -28 -20 0 -11 -4 -26 -8 -32 -10 -16 -37 -17 -37 -2
0 6 7 8 18 5 13 -5 11 -1 -6 16 -19 19 -24 21 -32 8 -5 -8 -7 -17 -4 -21 2 -4
-4 -6 -14 -5 -12 1 -16 -5 -15 -21 2 -15 -2 -20 -15 -18 -9 2 -18 4 -19 5 -2
2 -7 3 -13 4 -18 2 -13 21 9 31 14 7 21 19 21 38 0 26 -1 27 -16 13 -20 -20
-35 -21 -28 -1 4 11 2 13 -9 9 -10 -4 -14 -16 -12 -40 3 -25 0 -34 -11 -34 -9
0 -12 5 -9 10 4 6 -5 5 -19 -2 -14 -6 -26 -18 -26 -26 0 -37 -13 3 -16 48 -3
44 -1 50 16 50 10 0 22 5 25 10 4 7 12 7 24 0 23 -12 31 -4 32 29 0 22 2 23 8
7 7 -17 8 -17 23 -2z"/>
<path d="M1065 8933 c-295 -53 -585 -231 -768 -471 -470 -618 -270 -1509 420
-1865 200 -103 381 -143 617 -134 343 12 623 139 861 388 170 178 284 408 326
658 15 85 15 307 0 392 -29 172 -103 358 -199 503 -25 39 -89 115 -142 170
-184 190 -419 315 -677 360 -109 20 -329 19 -438 -1z m421 -48 c94 -15 264
-70 344 -110 220 -112 436 -332 541 -553 218 -456 133 -990 -215 -1350 l-83
-86 -64 27 c-108 46 -122 58 -149 128 -22 58 -81 139 -100 139 -15 0 -17 -37
-4 -55 16 -21 20 -95 5 -79 -5 5 -11 22 -13 37 -5 47 -22 35 -34 -25 -18 -90
-62 -170 -105 -190 -25 -12 -39 -26 -44 -45 -3 -15 -18 -41 -33 -57 l-27 -28
25 7 c14 4 29 11 35 16 24 23 21 3 -10 -53 -46 -86 -69 -98 -202 -105 -134 -7
-260 8 -394 47 -135 39 -210 76 -228 115 -8 16 -17 73 -20 127 -3 53 -9 99
-12 103 -11 10 -41 -78 -46 -137 -6 -60 -15 -69 -44 -42 -17 15 -16 18 1 68
10 29 26 68 35 87 18 34 18 34 -3 16 -11 -10 -33 -45 -48 -78 -16 -32 -32 -59
-36 -59 -12 0 -118 97 -171 157 -53 60 -140 189 -175 258 -11 23 -36 87 -56
144 -187 536 31 1130 520 1424 117 70 277 129 411 152 107 18 289 18 399 0z"/>
<path d="M1070 8856 c-141 -26 -259 -112 -325 -238 -21 -40 -52 -93 -67 -118
-16 -25 -38 -74 -49 -110 -11 -36 -26 -75 -34 -86 -23 -35 -68 -234 -68 -299
0 -150 8 -243 20 -238 8 3 19 -10 28 -33 9 -22 23 -52 32 -68 13 -24 14 -34 3
-66 -13 -40 -9 -70 11 -70 7 0 9 9 5 26 -10 38 2 64 28 64 20 0 24 8 35 78 8
42 25 113 40 156 24 73 29 81 61 92 19 7 31 13 25 13 -12 1 56 61 69 61 5 0 2
-8 -5 -17 -9 -11 -2 -9 16 5 19 15 37 21 52 17 17 -4 21 -2 17 9 -4 11 7 18
38 26 24 7 52 16 64 20 27 11 74 1 74 -15 0 -24 -86 -58 -126 -50 -24 4 -34 3
-29 -4 3 -6 34 -11 67 -11 48 0 71 6 106 26 32 19 47 23 55 15 32 -32 164 4
203 57 29 37 25 55 -6 27 -23 -21 -39 -13 -20 10 9 11 9 15 1 15 -8 0 -9 5 -1
19 13 26 13 34 -2 25 -6 -4 -8 -3 -5 4 4 5 16 8 27 5 13 -3 20 0 21 8 1 8 4 3
8 -10 6 -22 8 -20 38 25 17 27 33 62 35 77 3 30 18 38 29 16 3 -8 11 -24 17
-36 7 -13 12 -30 12 -38 0 -9 7 -18 15 -21 8 -4 15 -14 15 -23 0 -32 77 -168
144 -254 21 -27 42 -63 46 -81 15 -56 32 -215 25 -236 -8 -25 16 -171 27 -164
4 3 8 19 8 35 0 17 11 47 25 67 14 20 25 44 25 53 0 9 8 27 19 40 18 24 51 83
51 93 0 3 -7 3 -16 -1 -13 -5 -14 3 -8 58 7 63 7 152 1 379 -3 107 -7 125 -52
255 -26 77 -59 155 -72 173 -34 45 -89 78 -146 86 -28 4 -55 15 -65 26 -9 12
-20 16 -26 11 -7 -5 -38 4 -76 23 -112 54 -233 96 -190 65 12 -9 12 -10 -3 -5
-10 3 -25 6 -33 6 -8 0 -14 7 -14 15 0 8 -8 16 -17 16 -73 6 -127 5 -183 -5z"/>
<path d="M940 7823 c-62 -6 -77 -12 -93 -37 l-16 -24 62 0 c142 1 201 -13 122
-28 -19 -3 -38 -11 -42 -17 -4 -7 19 -8 73 -5 43 3 85 4 92 1 16 -6 15 -23 -2
-23 -19 0 -28 -26 -13 -38 8 -7 20 -4 37 11 21 19 25 32 27 84 2 48 -1 61 -11
57 -7 -3 -33 2 -57 10 -41 15 -98 18 -179 9z"/>
<path d="M1410 7773 c-39 -20 -47 -40 -26 -68 10 -15 29 -20 82 -22 59 -3 66
-2 49 9 -18 12 -12 14 50 19 39 3 83 1 98 -4 20 -7 32 -6 40 2 17 17 -26 51
-65 51 -16 0 -37 4 -47 10 -10 5 -47 12 -82 15 -50 4 -72 1 -99 -12z"/>
<path d="M1053 7574 c-62 -26 -128 -304 -80 -338 9 -7 17 -23 17 -35 0 -20 9
-25 38 -22 7 1 29 -8 48 -20 48 -29 199 -63 224 -49 10 5 35 10 56 10 30 0 50
10 103 53 36 30 74 57 84 60 21 8 22 38 1 97 -9 25 -16 60 -16 78 0 21 -9 43
-23 58 -13 14 -31 41 -40 60 l-17 36 -24 -23 c-22 -21 -23 -24 -9 -45 16 -25
20 -60 7 -68 -5 -3 -33 -6 -63 -7 -31 -1 -61 -8 -71 -17 -16 -13 -20 -13 -42
1 -26 17 -38 13 -29 -9 3 -8 -1 -14 -8 -14 -32 0 10 -20 54 -25 42 -5 47 -4
47 15 0 20 24 28 35 10 3 -6 21 -2 43 10 20 11 42 20 48 20 14 0 72 -85 81
-118 8 -32 -2 -38 -40 -24 -17 6 -83 12 -144 13 -62 1 -141 7 -175 15 -35 7
-84 13 -110 14 -42 0 -48 3 -48 21 0 13 18 38 44 62 39 34 44 44 39 69 -4 19
0 35 11 47 34 38 4 84 -41 65z m127 -309 c5 3 19 1 30 -5 12 -6 57 -13 100
-15 44 -2 84 -6 90 -10 18 -11 11 -42 -12 -56 -33 -20 -203 -13 -231 9 -7 5
-26 13 -44 16 -17 4 -38 18 -47 30 -14 22 -13 24 7 33 13 6 37 6 60 1 21 -5
42 -6 47 -3z"/>
<path d="M10485 8933 c-406 -73 -772 -367 -927 -745 -220 -538 -52 -1143 413
-1488 391 -290 931 -321 1354 -79 112 64 161 102 254 192 184 180 300 391 353
641 29 141 29 361 0 502 -107 503 -505 890 -1009 978 -109 20 -329 19 -438 -1z
m283 -45 c-3 -33 -3 -33 39 -30 27 2 51 -2 65 -12 12 -9 34 -16 47 -16 41 0
112 -40 133 -76 14 -23 29 -35 52 -39 25 -5 40 -18 65 -56 17 -27 35 -49 40
-49 14 0 81 -73 81 -88 0 -8 18 -51 40 -97 27 -56 40 -97 40 -127 1 -23 8 -61
16 -83 9 -22 16 -49 16 -60 0 -39 30 -131 53 -165 15 -22 26 -54 28 -85 2 -28
9 -60 16 -73 12 -22 22 -267 12 -278 -3 -3 -6 -11 -7 -17 0 -7 -2 -20 -2 -29
-1 -9 -10 -19 -19 -21 -10 -3 9 -5 42 -6 80 -2 127 -25 202 -99 73 -72 82
-102 60 -192 -17 -64 -52 -123 -70 -117 -21 7 -18 25 4 29 12 2 25 9 27 17 3
9 0 12 -10 9 -11 -5 -14 1 -13 20 1 15 3 32 5 37 5 22 -1 34 -20 40 -30 10
-14 25 26 25 37 0 45 18 19 40 -12 10 -21 10 -42 1 -14 -6 -28 -9 -31 -7 -3 3
6 10 19 15 13 5 17 10 9 11 -10 0 -6 6 9 14 l24 13 -28 24 c-16 13 -45 39 -66
57 -31 27 -47 34 -103 39 -55 5 -69 3 -86 -12 -21 -19 -27 -45 -10 -45 6 0 10
4 10 8 0 12 70 43 81 37 14 -9 11 -32 -6 -48 -10 -11 -13 -25 -8 -48 8 -43
-11 -31 -27 16 -13 39 -21 43 -41 18 -17 -20 -111 -65 -119 -56 -3 3 1 8 8 10
7 3 19 11 26 19 8 8 21 14 30 14 8 0 18 5 22 12 5 8 2 9 -10 5 -13 -5 -7 12
23 67 26 48 41 87 40 108 0 18 -3 27 -6 21 -10 -25 -25 -13 -18 15 4 15 8 63
10 107 2 69 1 76 -9 48 -18 -51 -29 -52 -23 -3 3 25 8 57 12 71 4 15 2 30 -3
33 -5 3 -13 -11 -17 -31 -4 -20 -14 -46 -22 -57 -14 -19 -15 -16 -9 38 4 32
11 66 16 75 5 9 5 23 1 30 -6 8 -11 2 -16 -21 -4 -18 -7 -36 -7 -39 1 -4 -6
-14 -16 -22 -16 -14 -17 -13 -19 14 -1 16 3 29 9 29 9 0 9 3 0 12 -8 8 -8 15
-1 24 6 7 9 25 7 41 l-4 28 -8 -30 c-14 -51 -30 -84 -39 -78 -10 6 2 106 13
113 11 7 0 60 -11 60 -5 0 -9 -13 -9 -29 0 -16 -5 -42 -11 -58 l-12 -28 -6 25
c-4 14 -3 47 2 74 5 32 5 52 -2 59 -8 8 -11 4 -11 -11 0 -20 -25 -82 -33 -82
-2 0 -2 32 -1 70 1 39 -3 73 -7 76 -8 4 -14 -25 -10 -48 0 -5 -4 -8 -9 -8 -6
0 -10 -6 -10 -14 0 -8 -7 -17 -16 -20 -14 -5 -15 -4 -5 8 7 8 8 16 3 18 -6 2
-7 23 -2 53 10 65 -2 90 -19 36 -6 -22 -15 -42 -19 -45 -7 -4 -8 1 -15 86 -3
44 -17 80 -17 47 0 -8 -9 -32 -19 -54 l-18 -40 3 43 c1 24 -2 42 -8 42 -5 0
-7 7 -4 16 7 17 -17 58 -27 47 -4 -3 -7 -14 -7 -23 0 -9 -6 -25 -14 -35 -13
-18 -14 -18 -9 9 4 20 2 27 -6 22 -7 -5 -11 0 -11 13 0 10 5 21 10 23 6 2 -2
16 -17 32 -15 16 -28 25 -29 20 -1 -5 -5 -22 -9 -39 -6 -26 -8 -27 -16 -12 -6
9 -8 21 -4 26 11 18 -30 70 -60 77 -16 4 -46 15 -65 25 -19 11 -42 19 -50 19
-9 0 -21 5 -27 11 -5 5 -32 13 -58 17 -27 4 -50 13 -52 19 -5 14 24 11 117
-14 30 -8 66 -17 80 -20 14 -4 27 -9 30 -12 3 -4 30 -19 61 -33 30 -14 96 -54
145 -89 85 -59 87 -60 54 -22 -19 22 -56 52 -82 67 -26 15 -54 37 -63 49 -18
26 -20 77 -3 77 20 0 -4 15 -47 29 -48 16 -85 54 -78 81 5 17 3 18 -21 7 -14
-7 -26 -15 -26 -19 0 -11 -48 -10 -54 1 -4 5 3 7 14 4 24 -6 25 0 4 32 -16 24
-15 25 7 26 18 0 12 5 -21 17 -27 11 -49 27 -55 40 -8 19 -16 23 -42 20 -18
-2 -33 0 -33 4 0 4 -7 8 -15 8 -9 0 -18 7 -21 15 -5 11 -10 13 -19 5 -7 -6
-20 -8 -29 -4 -9 3 -16 1 -16 -5 0 -6 8 -11 18 -11 16 -1 16 -1 -1 -11 -10 -6
-21 -8 -24 -6 -3 3 -15 -5 -28 -19 -14 -15 -32 -23 -49 -22 -38 3 -32 24 14
44 25 11 35 21 28 25 -14 9 -48 -4 -95 -35 -41 -28 -63 -24 -36 6 13 15 14 20
4 16 -8 -2 -19 -13 -25 -23 -12 -21 -37 -44 -48 -45 -17 0 -7 58 12 75 11 10
17 22 14 26 -3 5 -2 9 3 10 27 2 47 9 56 18 6 6 18 11 27 11 13 -1 12 -3 -2
-14 -10 -7 -18 -24 -18 -37 0 -18 3 -20 12 -11 7 7 20 12 29 12 10 0 21 5 25
12 5 8 0 9 -15 5 -20 -5 -22 -3 -17 19 5 19 2 24 -11 24 -12 0 -9 5 11 15 15
8 41 15 56 15 43 0 90 12 84 21 -9 14 60 26 169 28 l78 1 -3 -32z m-262 -722
c3 -8 12 -12 20 -9 9 3 26 -7 42 -25 29 -33 142 -100 142 -84 0 6 9 8 20 5 11
-3 20 -9 20 -13 0 -5 10 -10 22 -12 41 -6 30 -25 -19 -33 -101 -14 -213 -57
-213 -82 0 -7 -4 -13 -10 -13 -5 0 -10 5 -10 10 0 16 -30 12 -37 -5 -3 -9 2
-22 13 -30 23 -17 38 -19 28 -3 -4 6 -3 8 4 5 13 -9 153 18 184 34 14 8 71 13
146 14 l123 1 46 -45 c25 -25 60 -76 79 -113 33 -66 34 -70 34 -193 0 -165 20
-249 53 -216 23 23 27 8 27 -106 1 -65 4 -138 8 -163 6 -36 3 -55 -15 -95 -13
-27 -23 -55 -23 -61 0 -6 -13 -38 -30 -72 -16 -34 -30 -68 -30 -75 0 -6 -9
-27 -21 -46 -11 -18 -18 -36 -15 -39 3 -3 1 -11 -4 -18 -6 -6 -10 -16 -9 -20
1 -5 -1 -17 -4 -26 -39 -104 -46 -108 -207 -133 -109 -17 -207 -19 -299 -5
-52 7 -69 14 -87 37 -33 40 -69 134 -90 233 -17 81 -20 88 -78 150 -34 36 -73
81 -87 100 -24 32 -28 33 -45 20 -18 -14 -18 -14 -1 7 26 31 5 38 -42 13 -52
-26 -60 -25 -27 3 28 24 45 73 23 64 -8 -3 -12 7 -13 29 0 19 -10 48 -22 64
-12 16 -22 40 -22 53 0 14 -11 53 -24 88 -20 56 -24 88 -29 247 l-6 182 24 16
c15 9 70 20 137 28 92 9 113 14 116 28 2 9 -8 24 -22 34 -22 14 -35 15 -88 6
-35 -6 -80 -14 -100 -17 -21 -3 -44 -13 -53 -21 -32 -33 -15 37 27 109 46 81
76 113 128 141 89 48 304 83 316 52z m495 -36 c16 0 117 -84 124 -102 3 -10
13 -18 20 -18 8 0 39 -31 70 -70 31 -38 60 -70 66 -70 6 0 8 -4 5 -8 -3 -5 2
-20 12 -33 22 -31 82 -155 82 -169 0 -6 5 -19 10 -30 23 -46 25 -57 20 -89 -3
-19 -11 -36 -19 -39 -8 -3 -11 0 -7 6 3 6 1 14 -4 17 -7 4 -9 19 -5 35 3 16 2
37 -3 47 -48 101 -92 178 -102 175 -6 -1 -11 6 -10 15 4 33 0 40 -59 103 -33
35 -58 67 -55 72 3 4 -2 8 -11 8 -8 0 -30 16 -47 36 -18 20 -49 47 -70 60 -23
15 -35 29 -32 38 3 7 -2 16 -10 19 -9 4 -16 11 -16 17 0 6 7 4 16 -4 8 -9 20
-16 25 -16z m899 -508 c0 -103 -32 -252 -55 -252 -16 0 -101 79 -127 119 -23
34 -23 80 0 87 52 17 112 49 136 75 15 16 32 29 37 29 5 0 9 -26 9 -58z"/>
<path d="M10543 7848 c-18 -9 -21 -18 -20 -64 1 -36 6 -54 15 -54 7 0 17 -11
22 -25 14 -36 56 -50 94 -32 17 8 63 25 103 37 40 12 78 29 85 38 14 16 16 16
-67 -4 -14 -4 -32 -1 -40 6 -13 11 -12 15 12 27 18 9 40 12 61 8 19 -4 39 -1
47 5 7 6 19 10 27 9 7 -1 24 -1 37 0 l24 1 -24 18 c-55 43 -132 52 -261 30
-57 -10 -72 -10 -76 0 -4 14 -10 14 -39 0z"/>
<path d="M10264 7794 c-105 -21 -129 -29 -154 -51 -21 -17 -30 -34 -30 -54 0
-16 5 -29 10 -29 6 0 10 5 10 11 0 6 6 9 13 6 7 -3 21 1 32 9 22 16 54 18 90
4 22 -8 24 -13 15 -30 -6 -11 -9 -20 -8 -20 24 3 114 42 117 51 2 6 -1 9 -7 5
-6 -3 -13 -2 -17 3 -3 6 4 15 15 21 15 8 20 19 18 38 -3 24 -8 28 -49 32 -26
3 -51 5 -55 4z"/>
<path d="M10644 7545 c27 -63 22 -80 -31 -106 -55 -28 -65 -56 -18 -50 17 1
34 6 40 9 5 3 19 7 31 8 17 2 22 -2 18 -14 -5 -15 -4 -15 9 1 8 9 19 17 26 17
13 0 15 17 1 25 -5 3 -6 13 -3 22 5 13 2 15 -11 10 -10 -4 -15 -3 -11 3 3 6
12 10 19 10 6 0 17 5 23 11 14 14 -11 59 -32 59 -7 0 -15 4 -17 9 -1 5 -16 13
-31 17 l-28 6 15 -37z"/>
<path d="M10729 7399 c-17 -14 -17 -18 -4 -23 8 -3 15 -1 15 5 0 6 6 6 18 1 9
-5 22 -7 29 -5 6 2 15 -1 19 -8 5 -9 -2 -11 -29 -6 -24 4 -39 1 -47 -8 -6 -7
-19 -15 -30 -18 -14 -3 -17 0 -14 12 3 10 -1 7 -12 -6 -11 -16 -27 -23 -51
-23 -19 0 -32 -4 -28 -9 10 -18 -60 -30 -177 -32 l-118 -2 0 -32 c0 -26 10
-41 52 -79 29 -26 61 -46 74 -46 13 0 34 -4 49 -10 54 -21 119 -15 181 17 32
16 64 28 70 26 18 -6 134 117 134 142 0 11 -9 31 -20 43 -11 12 -20 25 -20 31
0 12 -29 23 -41 15 -5 -3 -9 0 -9 5 0 6 7 11 16 11 8 0 13 4 9 9 -8 14 -45 9
-66 -10z m40 -136 c12 -26 7 -43 -13 -43 -7 0 -31 -9 -54 -20 -22 -11 -49 -20
-60 -20 -10 0 -22 -4 -27 -9 -9 -9 -84 -23 -110 -22 -27 2 -73 9 -97 16 -22 5
-27 13 -30 46 -4 47 -8 46 134 53 53 2 104 8 113 13 8 5 42 9 74 10 53 1 60
-2 70 -24z"/>
<path d="M5778 8919 c-1072 -48 -2097 -494 -2872 -1249 -1009 -983 -1491
-2362 -1310 -3755 206 -1595 1261 -2953 2759 -3553 690 -276 1462 -373 2210
-276 762 98 1477 389 2090 849 247 186 518 439 707 660 527 617 871 1350 1008
2145 70 408 79 919 24 1330 -111 837 -456 1619 -1000 2270 -163 196 -441 465
-649 631 -637 505 -1398 821 -2225 924 -106 13 -514 37 -560 33 -8 0 -90 -4
-182 -9z m537 -139 c677 -56 1289 -246 1855 -578 579 -339 1084 -825 1452
-1397 490 -763 733 -1709 668 -2600 -43 -583 -173 -1077 -419 -1590 -580
-1207 -1719 -2090 -3031 -2349 -1210 -239 -2463 47 -3435 784 -914 692 -1504
1692 -1669 2826 -126 868 19 1756 416 2548 304 607 781 1164 1338 1563 566
405 1218 665 1910 763 260 37 667 50 915 30z"/>
<path d="M5911 8519 c-416 -50 -751 -357 -836 -764 -21 -104 -21 -285 0 -390
37 -178 130 -350 264 -485 72 -71 221 -180 249 -180 6 0 12 -3 12 -8 0 -4 -39
-16 -87 -25 -140 -29 -355 -105 -502 -178 -585 -289 -1017 -818 -1175 -1439
-51 -203 -69 -346 -69 -560 0 -214 18 -357 69 -560 134 -526 473 -999 934
-1303 664 -438 1528 -484 2237 -121 446 229 815 616 1016 1069 512 1147 -11
2478 -1168 2970 -95 41 -236 85 -394 125 l-44 12 67 36 c217 119 386 330 462
578 26 82 28 103 28 259 1 187 -8 240 -70 387 -94 226 -303 428 -534 517 -139
54 -318 77 -459 60z m297 -55 c330 -68 597 -316 698 -649 25 -81 28 -105 28
-250 1 -138 -2 -171 -22 -239 -100 -348 -364 -596 -712 -668 -122 -26 -306
-20 -420 12 -310 86 -551 324 -646 635 -25 82 -28 105 -28 250 -1 177 6 221
61 355 113 277 368 492 658 553 95 21 286 21 383 1z m-483 -1876 c7 -55 135
-1531 134 -1549 -2 -43 -16 75 -89 761 -44 415 -83 772 -86 793 -5 32 -3 37
15 37 16 0 21 -8 26 -42z m55 33 c0 -5 18 -285 40 -622 23 -338 40 -627 38
-644 -2 -16 -27 245 -56 580 -30 336 -56 629 -59 653 -5 38 -4 42 16 42 11 0
21 -4 21 -9z m503 -33 c-2 -24 -35 -378 -73 -788 -37 -410 -68 -731 -69 -713
-1 44 98 1515 104 1531 2 6 13 12 23 12 17 0 19 -6 15 -42z m52 30 c3 -7 -33
-355 -79 -773 -46 -418 -85 -753 -85 -745 -1 8 29 356 66 773 52 582 70 757
81 757 7 0 15 -6 17 -12z m-588 -773 c45 -423 82 -781 82 -795 0 -21 -10 -30
-66 -57 -37 -18 -70 -30 -74 -25 -3 4 -180 317 -393 697 -360 641 -386 690
-369 703 119 89 593 256 708 249 l29 -2 83 -770z m91 735 c10 -134 80 -1535
76 -1539 -2 -2 -6 -2 -8 0 -3 3 -107 1528 -106 1567 0 8 8 12 18 10 12 -2 18
-14 20 -38z m331 -758 c-28 -427 -53 -779 -55 -781 -2 -2 -6 -2 -7 0 -2 2 13
328 34 724 21 396 38 748 38 782 1 50 4 62 19 65 9 2 19 0 20 -4 2 -5 -20
-358 -49 -786z m367 758 c374 -95 698 -283 984 -569 254 -254 421 -528 528
-862 37 -116 78 -287 70 -294 -2 -1 -349 -39 -773 -84 -423 -44 -781 -83 -795
-85 -22 -3 -28 3 -53 55 -50 104 -151 205 -254 255 -34 16 -53 31 -53 42 0 20
156 1475 165 1539 7 49 -2 49 181 3z m-642 -112 c12 -274 47 -1360 44 -1364
-4 -3 -79 1414 -78 1474 0 20 5 32 14 32 11 0 15 -31 20 -142z m230 -668 c-22
-415 -40 -743 -42 -729 -2 14 9 363 23 774 19 560 28 751 38 757 8 5 13 -1 16
-20 2 -15 -14 -367 -35 -782z m-170 363 c12 -833 15 -1118 10 -1098 -3 16 -54
1428 -54 1511 0 17 6 24 19 24 17 0 18 -21 25 -437z m44 -340 c-1 -520 -4
-712 -8 -578 -4 110 -11 460 -15 778 -7 528 -6 577 9 577 15 0 16 -67 14 -777z
m54 612 c-14 -859 -25 -1381 -28 -1384 -2 -2 -4 345 -4 773 0 735 1 777 18
774 15 -3 17 -18 14 -163z m58 133 c0 -101 -51 -1505 -55 -1513 -5 -10 -4 95
12 1108 6 415 7 437 25 437 14 0 18 -8 18 -32z m-1278 -1385 c376 -223 685
-408 687 -409 2 -2 -6 -25 -17 -51 l-21 -48 -98 3 c-286 9 -790 68 -1350 158
-156 26 -163 28 -163 50 0 36 55 240 93 344 59 161 157 360 177 360 5 0 316
-183 692 -407z m1301 -168 c128 -33 253 -125 326 -240 74 -116 95 -298 52
-436 -68 -215 -279 -369 -506 -369 -147 0 -264 49 -372 155 -87 86 -136 181
-155 299 -40 260 134 520 394 590 70 19 190 20 261 1z m1995 -202 c-3 -16 -78
-25 -758 -85 -415 -37 -775 -66 -800 -66 -52 0 1441 165 1513 167 41 1 48 -2
45 -16z m-4089 -28 c297 -49 815 -119 1036 -138 31 -3 26 -4 -18 -5 -135 -4
-974 70 -1174 103 -29 5 -33 10 -33 35 0 37 -1 37 189 5z m4095 -21 c4 -9 5
-19 2 -21 -6 -6 -1335 -94 -1366 -91 -14 2 283 31 660 64 377 34 688 62 691
63 4 0 10 -6 13 -15z m6 -64 c0 -15 -7 -20 -27 -20 -16 0 -365 -18 -778 -40
-830 -44 -801 -43 -791 -32 6 5 1412 106 1559 111 31 1 37 -2 37 -19z m-4179
-15 c172 -23 586 -62 839 -80 124 -8 248 -17 275 -19 97 -8 -512 5 -700 14
-230 12 -482 29 -512 36 -18 3 -23 11 -23 34 0 17 1 30 3 30 2 0 55 -7 118
-15z m4189 -40 c0 -8 -1 -15 -2 -15 -32 -3 -1418 -49 -1453 -49 -62 2 1248 76
1368 78 71 1 87 -2 87 -14z m0 -54 c0 -17 -17 -18 -307 -25 -379 -7 -1308 -15
-1198 -9 107 5 1340 50 1433 52 64 1 72 -1 72 -18z m-4186 -16 c118 -10 605
-35 716 -36 61 -1 91 -4 71 -8 -41 -7 -64 -36 -41 -51 8 -5 74 -10 146 -10
100 0 134 3 143 14 9 11 8 18 -4 30 -15 15 -11 16 50 16 61 0 65 -1 50 -16
-11 -12 -13 -20 -5 -29 12 -15 -31 -18 -510 -35 -267 -10 -398 -17 -662 -36
l-88 -7 0 31 c0 27 4 31 33 34 24 2 32 8 32 23 0 15 -8 21 -32 23 -29 3 -33 7
-33 31 0 35 6 41 39 36 14 -2 57 -7 95 -10z m4186 -40 c0 -13 -95 -15 -802
-13 -860 2 -873 4 -118 17 834 14 920 13 920 -4z m0 -55 c0 -14 -7 -20 -22
-20 -341 4 -1562 30 -1566 34 -3 3 353 6 791 6 790 0 797 0 797 -20z m-715
-25 c600 -8 715 -13 715 -34 0 -14 -11 -16 -82 -13 -46 1 -404 14 -797 27
-392 13 -716 27 -720 31 -3 3 102 4 234 0 132 -3 425 -8 650 -11z m0 -45 c308
-11 595 -20 638 -20 70 0 77 -2 77 -20 0 -14 -6 -20 -22 -19 -147 3 -1409 77
-1343 78 50 0 342 -8 650 -19z m-2235 3 c-274 -11 -939 -67 -1257 -106 l-103
-13 0 31 0 32 143 11 c288 23 906 49 1152 48 77 0 106 -1 65 -3z m2193 -42
c412 -22 751 -41 753 -44 2 -2 2 -11 -2 -20 -4 -12 -16 -15 -52 -11 -26 3
-382 27 -792 55 -409 28 -746 52 -749 55 -8 8 94 4 842 -35z m-18 -44 l760
-52 3 -22 c2 -13 0 -23 -5 -23 -87 6 -1586 148 -1558 148 22 1 382 -23 800
-51z m-2220 26 c-301 -27 -965 -115 -1193 -158 -110 -21 -112 -21 -112 18 l0
32 193 23 c383 44 944 90 1082 89 39 0 52 -2 30 -4z m2245 -73 c377 -34 695
-63 708 -66 26 -5 30 -34 4 -34 -18 0 -1356 144 -1417 153 -123 17 114 -1 705
-53z m-73 -35 c433 -47 791 -86 794 -88 13 -4 -39 -225 -85 -362 -53 -158
-165 -391 -187 -389 -11 1 -1351 794 -1367 808 -3 4 48 116 53 116 3 0 359
-38 792 -85z m-1809 4 c46 -95 144 -193 240 -240 l71 -34 -5 -80 c-23 -395
-80 -879 -162 -1370 l-27 -160 -39 3 c-111 9 -398 103 -561 184 -561 279 -981
798 -1134 1401 -16 61 -31 126 -34 143 l-6 31 92 16 c462 82 1194 169 1472
175 l60 1 33 -70z m1178 -920 c215 -382 389 -698 387 -702 -8 -14 -237 -124
-336 -161 -141 -53 -377 -114 -377 -97 0 3 -7 44 -15 91 -76 427 -152 1048
-171 1390 l-6 125 53 26 c30 14 59 25 64 24 6 -1 186 -314 401 -696z m-586 -9
c20 -285 60 -699 84 -882 l12 -98 -31 0 -32 0 -7 68 c-20 216 -58 1093 -54
1259 l2 78 3 -70 c2 -38 12 -198 23 -355z m76 -35 c25 -223 92 -684 119 -829
20 -107 20 -106 -18 -106 l-33 0 -22 193 c-33 279 -49 456 -72 775 -20 280
-25 449 -9 277 5 -49 21 -189 35 -310z m-341 25 c-24 -352 -86 -955 -97 -965
-2 -2 -18 0 -36 2 -24 4 -31 9 -28 22 29 96 162 1056 168 1213 l1 43 5 -40 c2
-22 -4 -146 -13 -275z m71 38 c-9 -375 -36 -891 -52 -986 -4 -29 -7 -32 -32
-26 -15 4 -28 8 -30 9 -1 1 2 34 8 73 32 226 100 1007 100 1148 0 30 3 54 7
54 3 0 3 -123 -1 -272z m134 -298 c10 -252 18 -390 36 -631 l7 -89 -32 0 c-28
0 -31 3 -31 29 0 17 -6 31 -16 35 -23 9 -34 -2 -34 -35 0 -27 -3 -29 -35 -29
-35 0 -35 0 -31 38 15 112 45 641 47 827 1 61 4 97 6 80 8 -67 13 -76 36 -73
21 3 22 8 27 143 3 100 5 117 7 60 1 -44 7 -204 13 -355z"/>
<path d="M5920 8076 c-91 -23 -177 -46 -192 -49 -18 -5 -41 -27 -66 -65 -54
-79 -121 -138 -195 -171 -34 -15 -89 -45 -122 -66 -78 -49 -225 -174 -225
-190 0 -26 246 -48 376 -35 73 8 101 7 156 -7 80 -20 128 -14 383 48 282 70
325 87 379 147 21 23 44 42 52 42 51 0 377 192 372 219 -6 29 -222 71 -383 75
-127 3 -175 15 -282 70 -29 14 -60 26 -70 25 -10 0 -92 -20 -183 -43z"/>
<path d="M5960 7050 c-24 -24 -25 -38 -5 -113 8 -32 15 -67 15 -77 0 -11 6
-20 13 -20 8 0 11 14 9 45 -4 40 -1 46 20 53 12 5 47 6 76 4 l52 -4 0 -37 c0
-34 14 -61 31 -61 4 0 5 15 2 33 -4 29 0 39 28 66 36 33 69 47 94 38 23 -9 27
9 8 42 -15 26 -23 30 -43 26 -14 -3 -45 1 -69 10 -26 9 -78 15 -127 15 -71 0
-87 -3 -104 -20z"/>
<path d="M7167 5913 c-30 -8 -16 -39 16 -35 33 4 57 -13 57 -39 0 -27 -33 -42
-64 -27 -33 14 -44 4 -23 -20 22 -24 21 -45 -1 -65 -41 -37 -86 -12 -80 44 4
38 -16 50 -32 19 -13 -25 -5 -57 23 -87 43 -47 137 -16 137 45 0 13 6 22 15
22 25 0 55 38 55 69 0 20 -9 37 -31 55 -30 26 -38 28 -72 19z"/>
<path d="M7295 5744 c-54 -37 -63 -57 -29 -62 30 -4 56 -36 52 -63 -2 -12 -15
-31 -30 -42 -26 -19 -28 -19 -53 -3 -22 14 -26 24 -23 47 6 42 -17 58 -30 21
-18 -52 29 -112 88 -112 23 0 77 44 85 71 9 28 -12 74 -41 89 l-24 13 28 17
c27 17 27 17 64 -18 26 -25 41 -33 48 -26 7 7 -2 25 -31 57 -22 26 -44 47 -47
46 -4 0 -29 -16 -57 -35z"/>
<path d="M6674 5685 c-4 -9 -5 -17 -3 -18 158 -93 357 -274 444 -407 55 -83
66 -93 79 -80 11 11 -20 62 -100 166 -96 124 -236 248 -377 333 -33 20 -38 21
-43 6z"/>
<path d="M6622 5320 c-110 -23 -116 -30 -67 -80 38 -39 38 -40 20 -60 -14 -16
-16 -23 -7 -32 9 -9 17 -7 35 10 17 16 26 19 34 11 17 -17 37 -1 23 17 -14 16
6 48 64 103 57 55 39 61 -102 31z"/>
<path d="M6768 5214 c-49 -37 -55 -64 -13 -64 23 0 37 -12 48 -42 9 -26 -29
-68 -63 -68 -36 0 -53 22 -45 58 4 21 2 31 -9 35 -16 6 -26 -12 -26 -47 0 -31
34 -72 64 -80 50 -12 116 35 116 85 0 31 -35 79 -58 79 -13 0 -11 5 8 20 33
26 39 25 76 -11 19 -18 37 -28 44 -24 13 8 -65 95 -85 95 -5 0 -31 -16 -57
-36z"/>
<path d="M5870 4981 c-224 -72 -363 -254 -365 -476 0 -90 15 -153 57 -238 34
-68 124 -162 194 -201 332 -189 747 52 747 434 0 278 -227 502 -508 499 -38 0
-95 -8 -125 -18z m261 -17 c89 -27 151 -63 214 -128 190 -196 188 -483 -5
-677 -189 -191 -502 -184 -686 13 -64 70 -95 128 -118 219 -21 85 -20 139 3
227 56 214 242 360 462 361 42 1 99 -6 130 -15z"/>
<path d="M5869 4931 c-117 -37 -218 -126 -271 -238 -60 -126 -60 -260 0 -386
149 -316 586 -348 780 -57 148 221 75 512 -160 648 -93 53 -242 67 -349 33z
m323 -44 c329 -162 323 -623 -10 -780 -57 -27 -81 -33 -159 -35 -99 -4 -158 9
-236 54 -148 84 -238 273 -210 438 28 167 132 286 303 352 23 9 69 13 136 11
94 -2 106 -5 176 -40z"/>
<path d="M5944 4909 c-240 -31 -407 -288 -338 -520 24 -80 48 -121 103 -178
159 -163 429 -164 587 -4 279 285 43 754 -352 702z m203 -41 c97 -36 170 -107
221 -216 23 -49 27 -70 27 -152 0 -86 -3 -101 -32 -162 -96 -203 -324 -287
-527 -195 -218 100 -294 381 -157 580 103 151 293 209 468 145z"/>
<path d="M5899 4846 c-102 -39 -176 -101 -217 -183 -103 -202 9 -451 230 -512
77 -22 173 -11 251 27 268 132 268 512 -1 644 -56 28 -79 33 -147 35 -49 2
-94 -3 -116 -11z m251 -37 c259 -122 259 -495 0 -618 -47 -22 -68 -26 -150
-26 -84 0 -101 3 -148 28 -141 74 -217 231 -182 378 29 122 93 197 209 246 78
33 191 29 271 -8z"/>
<path d="M5920 4801 c-87 -27 -165 -96 -203 -180 -30 -65 -29 -178 1 -246 31
-68 93 -128 165 -160 142 -64 326 0 395 138 64 129 43 267 -58 368 -74 74
-205 109 -300 80z m215 -38 c174 -91 213 -326 77 -466 -56 -58 -105 -80 -193
-85 -67 -4 -84 -1 -131 20 -243 111 -231 451 19 544 55 20 177 13 228 -13z"/>
<path d="M5959 4759 c-86 -13 -155 -67 -195 -154 -60 -127 2 -287 134 -347 60
-27 159 -26 217 2 62 30 120 97 139 161 20 66 20 92 0 158 -36 121 -164 200
-295 180z m158 -45 c136 -65 174 -242 78 -368 -64 -84 -201 -114 -300 -65
-166 83 -181 318 -27 422 76 51 156 55 249 11z"/>
<path d="M5915 4701 c-58 -26 -110 -88 -125 -150 -50 -208 208 -360 363 -213
116 110 81 305 -65 366 -50 21 -124 20 -173 -3z m168 -15 c73 -31 120 -104
120 -187 0 -69 -30 -127 -86 -166 -35 -24 -50 -28 -112 -28 -62 0 -77 4 -114
28 -49 32 -91 110 -91 167 0 75 59 160 131 189 36 14 115 13 152 -3z"/>
<path d="M5857 4602 c-21 -23 -22 -42 -2 -42 8 0 15 4 15 10 0 14 37 31 54 24
26 -10 20 -53 -9 -66 -29 -13 -33 -28 -7 -28 24 0 42 -19 42 -45 0 -44 -50
-61 -72 -25 -7 11 -21 20 -30 20 -27 0 -2 -46 33 -61 69 -28 144 61 90 108
-17 14 -18 18 -5 38 17 26 6 68 -21 79 -31 12 -72 6 -88 -12z"/>
<path d="M6054 4612 c-39 -25 -52 -149 -21 -196 34 -52 97 -42 123 19 26 62
12 155 -26 175 -22 12 -60 13 -76 2z"/>
<path d="M5235 3977 c-25 -19 -11 -39 18 -28 31 12 57 -4 57 -34 0 -31 -26
-46 -59 -34 -30 12 -48 -3 -26 -21 18 -15 20 -51 3 -68 -7 -7 -24 -12 -40 -12
-32 0 -51 28 -42 63 4 17 1 26 -10 30 -19 8 -31 -31 -22 -68 7 -27 59 -65 89
-65 10 0 32 14 49 30 24 24 29 36 24 56 -4 16 -3 23 3 19 16 -9 51 14 61 41
13 32 -9 76 -45 92 -33 15 -37 15 -60 -1z"/>
<path d="M5334 3798 c-75 -69 -90 -115 -53 -162 40 -50 120 -26 179 55 54 75
31 149 -45 149 -28 0 -45 -9 -81 -42z m114 0 c24 -24 12 -58 -36 -108 -51 -53
-88 -64 -112 -35 -19 23 -5 57 46 108 46 47 79 58 102 35z"/>
<path d="M4810 3816 c0 -22 90 -152 164 -236 132 -152 356 -316 356 -261 0 4
-33 30 -72 57 -154 105 -294 248 -384 394 -35 56 -64 78 -64 46z"/>
<path d="M4691 3451 c-23 -15 -3 -30 33 -24 28 4 37 1 50 -19 35 -53 -4 -78
-122 -78 -115 0 -119 -8 -45 -82 51 -51 65 -60 75 -49 11 10 4 21 -37 57 l-49
44 77 0 c43 0 88 5 100 12 54 28 61 76 18 119 -30 29 -72 38 -100 20z"/>
<path d="M4845 3308 c-60 -33 -115 -106 -115 -153 0 -33 41 -75 73 -75 55 0
157 105 157 161 0 58 -64 95 -115 67z m69 -34 c26 -25 19 -49 -29 -102 -51
-57 -74 -68 -105 -52 -36 19 -25 58 33 117 57 56 76 63 101 37z"/>
<path d="M4487 8443 c-4 -3 -7 -213 -7 -465 l0 -458 -647 -2 c-424 -2 -648 -6
-648 -13 0 -7 224 -11 647 -13 l647 -2 3 -87 c2 -58 7 -88 16 -91 9 -3 12 19
12 87 l0 90 133 3 c79 2 132 7 132 13 0 6 -53 11 -132 13 l-133 3 0 464 c0
256 -4 465 -8 465 -5 0 -12 -3 -15 -7z"/>
<path d="M7500 7986 l0 -465 -152 -3 c-110 -2 -152 -6 -156 -15 -3 -10 32 -13
152 -13 l156 0 0 -91 c0 -68 3 -90 13 -87 8 3 13 33 15 91 l3 87 647 2 c423 2
647 6 647 13 0 7 -224 11 -647 13 l-648 2 -2 462 c-2 358 -6 462 -15 466 -10
3 -13 -94 -13 -462z"/>
<path d="M3036 7478 c-9 -5 -16 -19 -16 -31 0 -16 178 -200 633 -653 347 -348
642 -637 654 -643 28 -14 49 -6 57 22 5 19 -95 123 -636 664 -353 353 -649
644 -658 646 -10 2 -25 0 -34 -5z"/>
<path d="M8284 6853 c-368 -365 -647 -648 -651 -662 -6 -25 16 -51 44 -51 8 0
304 289 658 642 453 450 645 648 645 663 0 24 -17 45 -38 45 -7 0 -303 -287
-658 -637z"/>
<path d="M2985 6717 c-3 -7 -4 -129 -3 -271 2 -197 6 -260 16 -264 9 -3 12 56
12 272 0 183 -3 276 -10 276 -6 0 -13 -6 -15 -13z"/>
<path d="M9000 6455 c0 -217 3 -276 13 -272 9 3 12 66 12 272 0 206 -3 269
-12 273 -10 3 -13 -56 -13 -273z"/>
<path d="M4485 6707 c-3 -7 -4 -124 -3 -261 2 -189 6 -250 16 -254 9 -3 12 54
12 262 0 176 -3 266 -10 266 -6 0 -13 -6 -15 -13z"/>
<path d="M7500 6455 c0 -209 3 -266 13 -262 9 3 12 64 12 262 0 198 -3 259
-12 263 -10 3 -13 -54 -13 -263z"/>
<path d="M9031 6134 c-31 -40 -29 -116 4 -150 19 -18 31 -23 48 -19 35 11 47
35 47 95 0 63 -12 86 -51 95 -21 5 -31 1 -48 -21z"/>
<path d="M2047 6013 c-4 -3 -7 -10 -7 -15 0 -12 679 -5 683 7 2 11 -665 20
-676 8z"/>
<path d="M3277 6013 c-4 -3 -7 -10 -7 -15 0 -4 218 -8 485 -8 424 0 485 2 485
15 0 13 -60 15 -478 15 -263 0 -482 -3 -485 -7z"/>
<path d="M7767 6013 c-4 -3 -7 -10 -7 -15 0 -4 232 -8 516 -8 408 0 515 3 512
13 -4 9 -116 13 -510 15 -277 1 -508 -1 -511 -5z"/>
<path d="M9217 6014 c-4 -4 -4 -11 -1 -15 3 -5 167 -9 365 -9 284 0 360 3 357
13 -4 9 -86 13 -360 15 -195 1 -357 -1 -361 -4z"/>
<path d="M1773 4498 c6 -19 1068 -19 1075 0 3 9 -109 12 -538 12 -429 0 -541
-3 -537 -12z"/>
<path d="M3153 4498 c3 -10 66 -13 272 -13 206 0 269 3 273 13 3 9 -56 12
-273 12 -217 0 -276 -3 -272 -12z"/>
<path d="M8300 4495 c0 -13 34 -15 272 -13 206 2 272 6 276 16 3 9 -56 12
-272 12 -240 0 -276 -2 -276 -15z"/>
<path d="M9155 4500 c-3 -6 0 -12 7 -15 7 -3 244 -4 527 -3 401 2 515 6 519
16 5 16 -1043 18 -1053 2z"/>
<path d="M2047 3003 c-4 -3 -7 -10 -7 -15 0 -12 679 -5 683 7 2 11 -665 20
-676 8z"/>
<path d="M3277 3003 c-4 -3 -7 -10 -7 -15 0 -4 219 -8 486 -8 384 0 485 3 482
13 -4 9 -110 13 -480 15 -261 1 -478 -1 -481 -5z"/>
<path d="M7767 3003 c-4 -3 -7 -10 -7 -15 0 -4 232 -8 516 -8 408 0 515 3 512
13 -4 9 -116 13 -510 15 -277 1 -508 -1 -511 -5z"/>
<path d="M9222 3003 c-44 -18 37 -23 359 -23 284 0 360 3 357 13 -4 9 -85 12
-354 14 -192 1 -355 -1 -362 -4z"/>
<path d="M4057 2604 c-133 -130 -245 -242 -250 -249 -10 -19 1 -43 24 -50 16
-5 63 35 227 193 303 293 309 299 296 320 -28 44 -46 31 -297 -214z"/>
<path d="M7645 2819 c-6 -18 15 -44 121 -151 71 -71 187 -184 257 -251 106
-100 132 -119 145 -110 42 26 28 45 -223 291 -254 250 -284 272 -300 221z"/>
<path d="M2975 2808 c-3 -7 -4 -130 -3 -272 2 -197 6 -260 16 -264 16 -5 18
533 2 543 -6 3 -12 0 -15 -7z"/>
<path d="M8997 2814 c-4 -4 -7 -128 -7 -276 0 -211 3 -269 13 -266 9 4 13 68
15 268 2 241 -2 293 -21 274z"/>
<path d="M4475 2797 c-10 -25 0 -517 10 -520 6 -1 11 93 13 266 1 181 -1 267
-8 267 -6 0 -13 -6 -15 -13z"/>
<path d="M7490 2540 c0 -213 3 -271 13 -267 9 3 12 65 12 267 0 202 -3 264
-12 268 -10 3 -13 -55 -13 -268z"/>
<path d="M3010 2160 l0 -50 2990 0 2990 0 0 50 0 50 -2990 0 -2990 0 0 -50z"/>
<path d="M3900 1960 l0 -50 2100 0 2100 0 0 50 0 50 -2100 0 -2100 0 0 -50z"/>
<path d="M5243 1803 l-773 -3 0 -45 0 -45 1525 0 1525 0 0 45 0 45 -732 0
c-403 0 -742 1 -753 3 -11 1 -368 1 -792 0z"/>
<path d="M4476 1683 c-3 -3 -6 -44 -6 -90 l0 -83 -645 -2 c-422 -2 -645 -6
-645 -13 0 -7 223 -11 645 -13 l645 -2 2 -462 c2 -358 6 -462 16 -466 9 -3 12
94 12 462 l0 466 50 0 c38 0 50 4 50 15 0 11 -12 15 -50 15 l-50 0 0 84 c0 78
-7 105 -24 89z"/>
<path d="M7490 1600 l0 -90 -50 0 c-38 0 -50 -4 -50 -15 0 -11 12 -15 50 -15
l50 0 0 -466 c0 -368 3 -465 13 -462 9 4 13 108 15 466 l2 462 645 2 c422 2
645 6 645 13 0 7 -223 11 -645 13 l-645 2 0 74 c0 77 -6 106 -21 106 -5 0 -9
-40 -9 -90z"/>
<path d="M4967 1603 c-4 -3 -7 -26 -7 -50 l0 -43 1035 0 1035 0 0 50 0 50
-1028 0 c-566 0 -1032 -3 -1035 -7z"/>
<path d="M5270 1360 l0 -50 730 0 730 0 0 50 0 50 -730 0 -730 0 0 -50z"/>
<path d="M5510 1160 l0 -50 490 0 490 0 0 50 0 50 -490 0 -490 0 0 -50z"/>
<path d="M5823 1013 l-193 -3 0 -45 0 -45 370 0 370 0 0 45 0 45 -157 0 c-87
0 -167 2 -178 3 -11 2 -107 1 -212 0z"/>
<path d="M5858 813 l-148 -4 0 -44 0 -45 290 0 290 0 0 45 0 45 -107 0 c-60 0
-124 2 -143 3 -19 2 -101 2 -182 0z"/>
<path d="M5790 560 l0 -50 205 0 205 0 0 50 0 50 -205 0 -205 0 0 -50z"/>
<path d="M5880 360 l0 -50 120 0 120 0 0 50 0 50 -120 0 -120 0 0 -50z"/>
<path d="M945 1560 c-24 -9 -50 -38 -42 -46 3 -3 14 -1 25 5 12 6 39 11 61 11
72 0 97 -23 39 -36 -35 -7 -98 -50 -98 -66 0 -5 5 -6 10 -3 6 3 10 -1 10 -9 0
-15 11 -18 93 -20 40 -2 48 -20 13 -32 l-31 -12 28 -7 c62 -16 142 20 142 65
0 8 3 13 6 10 12 -9 48 31 42 46 -4 10 0 12 10 8 12 -4 18 2 23 20 9 38 -1 54
-43 65 -44 13 -259 14 -288 1z"/>
<path d="M10875 1619 c-100 -19 -129 -28 -150 -50 -20 -21 -22 -31 -18 -75 l5
-50 82 1 c81 1 186 22 186 37 0 4 -5 8 -12 8 -14 0 -1 14 15 16 7 0 21 2 31 2
11 1 16 5 13 9 -4 3 -2 12 3 18 12 14 3 45 -13 45 -6 0 -18 7 -27 15 -25 23
-70 32 -115 24z"/>
<path d="M10432 1550 c-43 -7 -62 -21 -62 -50 0 -12 14 -15 67 -15 55 0 67 -3
71 -17 2 -10 9 -18 14 -18 6 0 8 -7 4 -15 -8 -23 30 -1 49 28 23 36 15 68 -22
83 -35 15 -53 16 -121 4z"/>
<path d="M10878 1213 c-27 -2 -48 -8 -48 -12 0 -5 -16 -12 -35 -15 -20 -4 -33
-11 -30 -16 6 -10 45 -7 65 5 9 5 15 4 18 -4 3 -9 7 -9 18 0 20 16 17 -2 -4
-26 -22 -27 -92 -48 -167 -52 -33 -1 -62 -3 -65 -4 -13 -4 60 -17 102 -18 36
-1 50 -6 62 -23 l15 -21 34 23 c19 13 52 54 75 91 38 64 42 81 18 77 -6 -1
-32 -3 -58 -5z"/>
</g>
</svg>
